<?xml version="1.0" encoding="UTF-8"?>
<svg version="1.1" xmlns="http://www.w3.org/2000/svg" width="756" height="626">
<path d="M0 0 C1.76024904 0.95735934 3.52016397 1.915333 5.27993774 2.87356567 C6.26002619 3.4069713 7.24011463 3.94037693 8.24990273 4.48994637 C11.37754315 6.20730554 14.45500352 7.98378726 17.5234375 9.8046875 C18.6475 10.47113281 19.7715625 11.13757813 20.9296875 11.82421875 C21.4978418 12.16243652 22.06599609 12.5006543 22.65136719 12.84912109 C24.36517526 13.86915247 26.08102042 14.88575868 27.796875 15.90234375 C35.58039624 20.52436609 43.30005885 25.24040037 51 30 C52.64451344 31.00653951 54.28904305 32.01305261 55.93359375 33.01953125 C83.93438034 50.30325628 105.48602218 71.24978693 113.51423085 104.10443902 C115.01871436 110.98519154 115.43176114 117.69623483 115.61691284 124.72503662 C115.67333633 126.60440088 115.67333633 126.60440088 115.73089969 128.52173209 C116.18180009 144.57662068 116.14247375 160.63873846 116.13072467 176.69847965 C116.12842325 181.37167052 116.13197305 186.04485796 116.13470459 190.7180481 C116.13910935 199.82445004 116.13821028 208.93084366 116.13529195 218.0372459 C116.13301965 225.43779261 116.13273324 232.83833701 116.13381577 240.23888397 C116.133969 241.29809498 116.13412223 242.35730598 116.13428011 243.44861428 C116.13459987 245.60112621 116.13492408 247.75363814 116.1352527 249.90615007 C116.13809122 269.99710115 116.13484469 290.08804764 116.12945233 310.17899796 C116.12497275 327.40318842 116.12577285 344.62737216 116.13037109 361.8515625 C116.13572329 381.90903895 116.13783031 401.96651142 116.13475883 422.02398849 C116.13444031 424.16180277 116.13412593 426.29961705 116.13381577 428.43743134 C116.13358435 430.01482727 116.13358435 430.01482727 116.13334826 431.62408979 C116.13248602 439.02259008 116.13393942 446.42108782 116.13629532 453.81958771 C116.13910009 462.82425176 116.13834017 471.8289071 116.13301457 480.83357015 C116.13038875 485.42414559 116.12935376 490.0147065 116.13266373 494.60528183 C116.13564887 498.80876667 116.13399699 503.01222353 116.12868617 507.21570584 C116.12757163 508.73383135 116.12813177 510.25195924 116.13056196 511.77008322 C116.14160877 519.24555573 116.03284166 526.58334791 115 534 C110.2681909 532.28869355 105.99996933 529.89116192 101.625 527.4375 C100.42689697 526.76823486 100.42689697 526.76823486 99.20458984 526.08544922 C92.40488802 522.26695743 85.7123904 518.29010166 79.05029297 514.23779297 C76.79294046 512.87499501 74.52444335 511.53211732 72.25390625 510.19140625 C39.88893709 491.04375916 39.88893709 491.04375916 27 478 C26.20335938 477.21367188 25.40671875 476.42734375 24.5859375 475.6171875 C8.29285132 458.65222147 0.0554083 435.5900623 -0.62364197 412.34428406 C-0.66142917 411.18682889 -0.69921636 410.02937372 -0.73814863 408.83684415 C-1.2020477 392.66278107 -1.09192686 376.48138897 -1.03152263 360.3026613 C-1.01461736 355.45033977 -1.00403116 350.59800349 -0.99261475 345.7456665 C-0.97207616 337.37126749 -0.94767755 328.99688721 -0.92053413 320.6225071 C-0.88129677 308.51508112 -0.8480721 296.40764428 -0.81623887 284.30019685 C-0.76441136 264.64893008 -0.7078301 244.99768006 -0.64819336 225.34643555 C-0.59032798 206.27547861 -0.53474246 187.20451724 -0.48217773 168.13354492 C-0.47892802 166.95480121 -0.4756783 165.7760575 -0.4723301 164.56159429 C-0.45603849 158.64722523 -0.43979122 152.73285605 -0.42356598 146.81848681 C-0.28925014 97.8789706 -0.14719162 48.93947907 0 0 Z " fill="#000000" transform="translate(71,50)"/>
<path d="M0 0 C0.04582628 51.76374257 0.08104399 103.52748308 0.10213066 155.29124196 C0.10463193 161.40916785 0.10722059 167.5270937 0.10986328 173.64501953 C0.1103879 174.86293476 0.11091252 176.08085 0.11145304 177.33567175 C0.12014413 197.02890605 0.13590695 216.72212861 0.15430559 236.41535595 C0.17304074 256.63815371 0.18412436 276.86094535 0.18817699 297.08375144 C0.19091456 309.55175075 0.19954578 322.01971688 0.21583293 334.48770598 C0.22644447 343.04961332 0.22959123 351.61150363 0.22700275 360.17341706 C0.22572793 365.10541643 0.22761477 370.03735803 0.23841095 374.969347 C0.32088509 414.7264143 -0.375738 450.0560221 -29.75 480.1875 C-35.61539361 485.97081499 -42.0445829 490.59826261 -49 495 C-49.8461084 495.53995605 -50.6922168 496.07991211 -51.56396484 496.63623047 C-64.99026804 505.18530884 -78.58989461 513.42540138 -92.34082031 521.44042969 C-95.06817938 523.03998622 -97.78096414 524.66232848 -100.4921875 526.2890625 C-102.22382408 527.31793433 -103.95558928 528.34658972 -105.6875 529.375 C-106.48389893 529.85807617 -107.28029785 530.34115234 -108.10083008 530.83886719 C-108.83454834 531.27102539 -109.5682666 531.70318359 -110.32421875 532.1484375 C-110.96447998 532.53177246 -111.60474121 532.91510742 -112.2644043 533.31005859 C-114 534 -114 534 -117 533 C-117.02291445 482.5101948 -117.04052266 432.02039013 -117.05106533 381.53058074 C-117.05231596 375.56286762 -117.05361029 369.59515451 -117.05493164 363.62744141 C-117.05519395 362.43943232 -117.05545626 361.25142324 -117.05572652 360.02741387 C-117.06007176 340.8191737 -117.06795299 321.61093653 -117.0771528 302.40269813 C-117.08652123 282.67710528 -117.09206236 262.95151399 -117.09408849 243.22591901 C-117.0954571 231.06502511 -117.09977173 218.90413971 -117.10791647 206.74324843 C-117.1132233 198.39159164 -117.11479537 190.03993921 -117.11350138 181.68828085 C-117.11286413 176.87781437 -117.11380548 172.06736269 -117.11920547 167.25689888 C-117.20307697 88.31110617 -117.20307697 88.31110617 -91 59 C-89.87464844 57.56140625 -89.87464844 57.56140625 -88.7265625 56.09375 C-85.64294043 52.38502154 -81.96513218 49.57553689 -78.125 46.6875 C-76.995177 45.83285156 -76.995177 45.83285156 -75.8425293 44.9609375 C-69.52605439 40.25561179 -62.99882459 36.14720323 -56.16552734 32.24560547 C-52.74938147 30.28064761 -49.36461531 28.26312023 -45.97509766 26.25268555 C-39.74963641 22.56081745 -33.51461511 18.88513747 -27.26953125 15.2265625 C-25.82551713 14.38021466 -24.38150657 13.53386074 -22.9375 12.6875 C-22.25631104 12.28877686 -21.57512207 11.89005371 -20.87329102 11.47924805 C-15.3297221 8.2227302 -9.87293343 4.83817812 -4.44140625 1.3984375 C-2 0 -2 0 0 0 Z " fill="#000000" transform="translate(689,50)"/>
<path d="M0 0 C12.09830879 6.83368637 24.05536636 13.90197561 36 21 C36.75087891 21.44585449 37.50175781 21.89170898 38.27539062 22.35107422 C45.3784528 26.57330213 52.43996247 30.84742026 59.38671875 35.32421875 C61.17062083 36.46815596 62.9655057 37.59510013 64.76953125 38.70703125 C90.52011463 54.66158851 107.32295562 76.89280774 114.35468978 106.3675639 C116.66903228 116.91108041 116.66527208 127.29220484 116.56762695 138.03833008 C116.5662123 140.25814787 116.56701658 142.47796798 116.56983948 144.69778442 C116.57125873 150.65317402 116.54211317 156.60804756 116.50696969 162.56331849 C116.47545471 168.81323689 116.4727558 175.06317053 116.46684265 181.31315613 C116.45225352 192.44809583 116.41625878 203.58282474 116.36862906 214.71766867 C116.32565023 224.81949875 116.29451072 234.92129121 116.2746582 245.02319336 C116.27334459 245.68975017 116.27203097 246.35630698 116.27067754 247.04306249 C116.26415121 250.38779489 116.25784428 253.73252763 116.25161803 257.07726061 C116.19952608 284.71830336 116.11172792 312.35913845 116 340 C111.24460035 338.48825899 107.18631249 336.52277023 102.9375 333.9375 C101.4301945 333.03430959 99.92233801 332.13203837 98.4140625 331.23046875 C97.5674707 330.72306152 96.72087891 330.2156543 95.84863281 329.69287109 C92.64826139 327.79097056 89.43139444 325.91836022 86.2109375 324.05078125 C42.80435355 298.85670911 42.80435355 298.85670911 31 288 C29.84564453 286.96552734 29.84564453 286.96552734 28.66796875 285.91015625 C9.11882797 267.49333367 0.09514219 241.85595142 -1.11418509 215.51265717 C-1.29054876 209.06459738 -1.26196689 202.61587148 -1.24291992 196.16601562 C-1.2439954 194.02722618 -1.24593801 191.88843702 -1.24867249 189.74964905 C-1.25347686 183.99661045 -1.24592423 178.24365064 -1.23571944 172.49062157 C-1.22688137 166.4573311 -1.22869739 160.42404269 -1.2290802 154.39074707 C-1.22814714 144.28050428 -1.21950559 134.17029173 -1.20581055 124.06005859 C-1.19002073 112.35985322 -1.18481497 100.65968076 -1.1855461 88.9594655 C-1.18615514 77.6917783 -1.18106541 66.42410183 -1.17275429 55.15641785 C-1.16921804 50.36215634 -1.16739058 45.56789862 -1.16686058 40.77363586 C-1.16586018 35.14615603 -1.15978862 29.51870409 -1.14969444 23.89123344 C-1.14676174 21.82111723 -1.14554562 19.75099781 -1.14612198 17.68087959 C-1.14660893 14.86856245 -1.14099449 12.05632469 -1.13371277 9.24401855 C-1.13526137 8.41419165 -1.13680997 7.58436475 -1.1384055 6.72939157 C-1.11418039 1.11418039 -1.11418039 1.11418039 0 0 Z " fill="#000000" transform="translate(238,149)"/>
<path d="M0 0 C0.90339963 11.86429269 1.14382413 23.64475515 1.12939453 35.53881836 C1.13075317 37.44460585 1.13253568 39.35039307 1.13470459 41.25617981 C1.13922424 46.38431605 1.13751199 51.51243194 1.1343255 56.64056849 C1.13177306 62.03776903 1.13414745 67.43496796 1.13571167 72.83216858 C1.13752515 81.89259144 1.13514882 90.95300612 1.13037109 100.01342773 C1.12493171 110.44827396 1.12669211 120.88310063 1.1321975 131.31794637 C1.13675405 140.31888652 1.13736673 149.31982082 1.13475883 158.32076174 C1.13320979 163.6782552 1.13296424 169.0357395 1.13629532 174.39323235 C1.1392111 179.43389094 1.13713113 184.47452465 1.13140106 189.51518059 C1.13009309 191.35120604 1.1304336 193.18723364 1.13266373 195.02325821 C1.16716008 226.34167093 1.16716008 226.34167093 -1.6875 238.1875 C-1.85975098 238.92742187 -2.03200195 239.66734375 -2.20947266 240.4296875 C-8.98435096 267.88359714 -27.90236294 288.71138181 -51.6081543 303.09472656 C-55.07617148 305.1687064 -58.55794282 307.21862513 -62.04394531 309.26220703 C-65.22147535 311.1302 -68.38878619 313.01471318 -71.5546875 314.90234375 C-82.32730669 321.32056496 -93.12337364 327.69664056 -104 333.9375 C-104.87197021 334.43958984 -105.74394043 334.94167969 -106.64233398 335.45898438 C-107.84031616 336.14250977 -107.84031616 336.14250977 -109.0625 336.83984375 C-109.75472656 337.23550537 -110.44695312 337.63116699 -111.16015625 338.03881836 C-113 339 -113 339 -116 340 C-116.0702281 311.36568598 -116.12305565 282.73138497 -116.15543652 254.09700203 C-116.1708743 240.80014666 -116.1919045 227.50336529 -116.22631836 214.20654297 C-116.25631553 202.61066458 -116.27559743 191.01482507 -116.28226548 179.41890895 C-116.2861603 173.28476893 -116.29524876 167.15074011 -116.31719017 161.01663589 C-116.33771861 155.23006921 -116.34380107 149.44365836 -116.33932304 143.65705872 C-116.34014098 141.5457105 -116.34600829 139.43435647 -116.35761642 137.32304001 C-116.44095485 121.36784694 -115.79180814 105.35322804 -109.875 90.3125 C-109.5764209 89.53197266 -109.2778418 88.75144531 -108.97021484 87.94726562 C-97.86175757 60.0596399 -76.84424892 44.96581993 -52 30 C-50.78237231 29.26201529 -49.56491049 28.52375678 -48.34765625 27.78515625 C-37.64105511 21.30706107 -26.81495078 15.03070575 -15.99462891 8.74511719 C-13.86880063 7.50629275 -11.74642476 6.2615355 -9.62646484 5.01269531 C-8.53672363 4.37170898 -7.44698242 3.73072266 -6.32421875 3.0703125 C-5.32865967 2.48266113 -4.33310059 1.89500977 -3.30737305 1.28955078 C-1 0 -1 0 0 0 Z " fill="#000000" transform="translate(521,149)"/>
</svg>
